<svg width="43" height="38" viewBox="0 0 43 38" fill="none" xmlns="http://www.w3.org/2000/svg">
<path fill-rule="evenodd" clip-rule="evenodd" d="M39.3568 1.5899C37.0433 0.525589 34.4372 0 31.9907 0C29.5442 0 26.9382 0.525589 24.6246 1.5899C23.9465 1.90526 22.7498 2.49654 21.9122 3.33748C21.6861 3.574 21.3006 3.574 21.0612 3.33748C20.2236 2.4834 19.0269 1.89212 18.3488 1.5899C16.0352 0.525589 13.4292 0 10.9827 0C8.53618 0 5.93012 0.525589 3.61657 1.5899C2.51299 2.10235 0 3.35062 0 5.26902C0 5.40042 0 5.51867 0 5.65007V9.77593C0 10.4198 0.531848 10.9454 1.18336 10.9454H14.7322C17.684 10.9979 17.6973 15.3472 14.7322 15.3997H1.20996C0.558441 15.3997 0.026592 15.9253 0.026592 16.5692V20.9053C0.026592 21.5491 0.558441 22.0747 1.20996 22.0747H14.7588C17.7106 22.1272 17.7239 26.4765 14.7588 26.529H1.20996C0.558441 26.529 0.026592 27.0546 0.026592 27.6985V37.1722C0.026592 37.9343 0.49196 38 1.07699 38H1.09029C1.56895 38 2.14069 37.3693 2.19388 37.3036C2.34014 37.1065 2.60606 36.8963 2.71243 36.8043C3.29746 36.3707 4.00216 36.0685 4.64038 35.8451C6.64811 35.1355 8.93507 34.899 11.0093 34.899C13.0835 34.899 15.3571 35.1355 17.3782 35.8451C18.0164 36.0685 18.7211 36.3707 19.3061 36.8043C19.4391 36.9094 20.423 37.343 20.9283 37.343H20.9416C21.0612 37.343 21.9654 37.343 22.085 37.343H22.0983C22.577 37.343 23.6141 36.8831 23.7205 36.8043C24.3055 36.3707 25.0102 36.0685 25.6484 35.8451C27.6562 35.1355 29.9431 34.899 32.0173 34.899C34.0915 34.899 36.3652 35.1355 38.3862 35.8451C39.0244 36.0685 39.7291 36.3707 40.3142 36.8043C40.4205 36.8831 40.6865 37.1065 40.8327 37.3036C40.8859 37.3693 41.4576 38 41.9363 38H41.9496C42.5213 38 43 37.9343 43 37.1722V5.63693C43 5.50553 43 5.38727 43 5.25588C42.9734 3.33748 40.4604 2.08921 39.3568 1.5899Z" fill="white"/>
</svg>
